<svg xmlns="http://www.w3.org/2000/svg" version="1.1" xmlns:xlink="http://www.w3.org/1999/xlink" xmlns:svgjs="http://svgjs.dev/svgjs" width="414" height="915" preserveAspectRatio="none" viewBox="0 0 414 915"><g mask="url(&quot;#SvgjsMask1520&quot;)" fill="none"><rect width="414" height="915" x="0" y="0" fill="#1e3266"></rect><path d="M420.9 915L0 915 L0 675.89Q-32.29 622.9, 20.700000000000003 590.61Q47.84 597.05, 41.400000000000006 624.19Q65.87 614.16, 75.9 638.63Q104.33 632.56, 110.4 660.99Q132.89 662.78, 131.10000000000002 685.27Q111.09 630.76, 165.60000000000002 610.75Q166.11 590.56, 186.3 591.08Q250.55 634.63, 207 698.88Q185.14 642.52, 241.5 620.66Q247.22 591.88, 276 597.59Q284.73 585.62, 296.7 594.34Q323.38 586.52, 331.2 613.19Q358.98 606.48, 365.7 634.26Q385.36 633.22, 386.4 652.88Q419.84 651.82, 420.9 685.25z" fill="#182f5d"></path><path d="M441.59999999999997 915L0 915 L0 673.94Q43.41 696.65, 20.700000000000003 740.06Q10.16 695.01, 55.2 684.47Q103.94 712.5, 75.9 761.24Q69.78 720.62, 110.4 714.49Q108.57 678.16, 144.9 676.34Q162.06 659, 179.4 676.17Q212.97 675.24, 213.9 708.81Q237.41 711.62, 234.60000000000002 735.13Q212.23 692.06, 255.3 669.69Q329.3 709.19, 289.8 783.19Q264.63 737.32, 310.5 712.15Q318.05 685.2, 345 692.76Q344.17 671.23, 365.7 670.4Q426.76 710.76, 386.4 771.82Q377.92 742.64, 407.09999999999997 734.16Q401.37 693.93, 441.59999999999997 688.21z" fill="#25467d"></path><path d="M420.9 915L0 915 L0 849.95Q-6.32 822.93, 20.700000000000003 816.61Q23.54 784.95, 55.2 787.79Q51.14 763.03, 75.9 758.97Q144.4 792.97, 110.4 861.47Q102.54 832.91, 131.10000000000002 825.06Q114.11 773.57, 165.60000000000002 756.57Q201.03 771.3, 186.3 806.74Q176.83 776.57, 207 767.1Q267.93 793.53, 241.5 854.46Q218.35 810.62, 262.2 787.47Q306.89 797.66, 296.7 842.36Q312.19 837.16, 317.4 852.65Q322.92 823.67, 351.9 829.2Q362.76 805.57, 386.4 816.43Q384.39 779.92, 420.9 777.91z" fill="#356cb1"></path><path d="M448.49999999999994 915L0 915 L0 947.44Q-26.16 900.58, 20.700000000000003 874.43Q29.48 848.71, 55.2 857.5Q60.61 828.41, 89.7 833.82Q160.72 870.35, 124.2 941.37Q109.35 892.02, 158.7 877.17Q158.83 842.8, 193.2 842.93Q198.44 827.47, 213.89999999999998 832.71Q284.34 868.65, 248.39999999999998 939.1Q231.75 887.95, 282.9 871.3Q293.9 847.8, 317.4 858.8Q320.38 841.08, 338.09999999999997 844.07Q389.89 875.16, 358.79999999999995 926.95Q376.66 924.12, 379.49999999999994 941.98Q380.46 908.44, 413.99999999999994 909.41Q406.67 867.58, 448.49999999999994 860.24z" fill="white"></path></g><defs><mask id="SvgjsMask1520"><rect width="414" height="915" fill="#ffffff"></rect></mask></defs></svg>