<svg xmlns="http://www.w3.org/2000/svg" version="1.1" xmlns:xlink="http://www.w3.org/1999/xlink" xmlns:svgjs="http://svgjs.dev/svgjs" width="1920" height="1080" preserveAspectRatio="none" viewBox="0 0 1920 1080"><g mask="url(&quot;#SvgjsMask1511&quot;)" fill="none"><rect width="1920" height="1080" x="0" y="0" fill="#1e3266"></rect><path d="M2080 1080L0 1080 L0 794.58Q82.51 717.1, 160 799.61Q196.38 675.99, 320 712.37Q406.22 638.59, 480 724.8Q602.21 687.01, 640 809.22Q655.69 728.91, 736 744.6Q805.07 653.67, 896 722.74Q961.79 628.53, 1056 694.32Q1186.13 664.46, 1216 794.59Q1237.51 720.1, 1312 741.61Q1341.93 675.54, 1408 705.47Q1532.59 670.06, 1568 794.64Q1590.01 720.64, 1664 742.65Q1690.91 673.56, 1760 700.47Q1850.07 630.54, 1920 720.6Q2050.82 691.41, 2080 822.23z" fill="#182f5d"></path><path d="M2016 1080L0 1080 L0 894.22Q59.32 857.54, 96 916.85Q154.72 815.57, 256 874.28Q285.08 807.36, 352 836.43Q410.25 734.68, 512 792.93Q568.58 753.51, 608 810.09Q709.18 751.27, 768 852.44Q801.46 789.9, 864 823.36Q904.01 767.37, 960 807.38Q1083.17 770.55, 1120 893.72Q1180.81 858.53, 1216 919.34Q1247.69 791.04, 1376 822.73Q1444.82 731.55, 1536 800.37Q1658.69 763.07, 1696 885.76Q1760 789.76, 1856 853.76Q1911.68 749.44, 2016 805.13z" fill="#25467d"></path><path d="M1952 1080L0 1080 L0 979.6Q1.63 885.23, 96 886.86Q181.4 812.26, 256 897.66Q340.65 886.31, 352 970.96Q394.13 917.09, 448 959.22Q511.08 926.3, 544 989.38Q574.66 860.04, 704 890.69Q764.83 855.52, 800 916.34Q867.1 887.44, 896 954.54Q958.81 921.35, 992 984.15Q1083.59 915.74, 1152 1007.33Q1173.78 933.11, 1248 954.89Q1263.95 874.84, 1344 890.79Q1442.09 828.88, 1504 926.96Q1592.52 855.48, 1664 944Q1697.95 881.95, 1760 915.91Q1838.51 898.42, 1856 976.94Q1914.49 939.43, 1952 997.93z" fill="#356cb1"></path><path d="M2080 1080L0 1080 L0 1022.48Q75.94 1002.42, 96 1078.36Q131.9 1018.26, 192 1054.17Q259.22 1025.39, 288 1092.61Q376.9 1021.51, 448 1110.41Q479.71 982.12, 608 1013.83Q650.38 960.22, 704 1002.6Q746.93 949.53, 800 992.45Q865.94 962.39, 896 1028.34Q1010.98 983.32, 1056 1098.29Q1125.35 1007.63, 1216 1076.98Q1236.55 1001.53, 1312 1022.08Q1367.6 981.68, 1408 1037.28Q1469.23 1002.51, 1504 1063.75Q1548.91 948.66, 1664 993.57Q1768.09 937.65, 1824 1041.74Q1888.84 1010.58, 1920 1075.41Q1963.97 959.38, 2080 1003.36z" fill="white"></path></g><defs><mask id="SvgjsMask1511"><rect width="1920" height="1080" fill="#ffffff"></rect></mask></defs></svg>